<!--?xml version="1.0" encoding="UTF-8" standalone="no"?-->
<svg xmlns:dc="http://purl.org/dc/elements/1.1/" xmlns:cc="http://creativecommons.org/ns#"
     xmlns:rdf="http://www.w3.org/1999/02/22-rdf-syntax-ns#"
     xmlns:sodipodi="http://sodipodi.sourceforge.net/DTD/sodipodi-0.dtd"
     xmlns:inkscape="http://www.inkscape.org/namespaces/inkscape"
     xmlns="http://www.w3.org/2000/svg" width="1055.1682" height="412.97791"
     viewBox="0 0 1055.1683 412.97792" version="1.1" id="svg23"
     sodipodi:docname="ALKEBUWARE TRANSAPARENT BACKGROUND STROKES.svg"
     inkscape:version="0.92.4 (5da689c313, 2019-01-14)" style="">
    <metadata id="metadata29">
        <rdf:rdf>
            <cc:work rdf:about="">
                <dc:format>image/svg+xml</dc:format>
                <dc:type rdf:resource="http://purl.org/dc/dcmitype/StillImage"></dc:type>
                <dc:title></dc:title>
            </cc:work>
        </rdf:rdf>
    </metadata>
    <defs id="defs27"></defs>
    <sodipodi:namedview pagecolor="#ffffff" bordercolor="#666666" borderopacity="1" objecttolerance="10"
                        gridtolerance="10" guidetolerance="10" inkscape:pageopacity="0" inkscape:pageshadow="2"
                        inkscape:window-width="1680" inkscape:window-height="987" id="namedview25" showgrid="false"
                        inkscape:zoom="1.5645922" inkscape:cx="419.35937" inkscape:cy="134.20325" inkscape:window-x="-8"
                        inkscape:window-y="-6" inkscape:window-maximized="1" inkscape:current-layer="g3325"
                        showguides="false" fit-margin-top="-0.5" fit-margin-left="0" fit-margin-right="0"
                        fit-margin-bottom="0"></sodipodi:namedview>
    <g inkscape:groupmode="layer" id="layer6" inkscape:label="divider" transform="translate(14.176661,-0.21133417)"></g>
    <g inkscape:groupmode="layer" id="layer5" inkscape:label="circle_w"
       transform="translate(14.176661,-0.21133417)"></g>
    <g inkscape:groupmode="layer" id="layer2" inkscape:label="circle_a"
       transform="translate(14.176661,-0.21133417)"></g>
    <g id="g3349" transform="translate(36.458965,-0.21133417)">
        <path inkscape:connector-curvature="0" id="path1977"
              d="m -25.454119,396.96797 47.935813,-77.97559 48.255378,78.13538"
              style="fill: none; stroke: rgb(0, 156, 220); stroke-width: 16; stroke-linecap: square; stroke-linejoin: round; stroke-miterlimit: 4; stroke-opacity: 1;"
              class="sybRIPgO_0"></path>
        <path sodipodi:nodetypes="ccc" inkscape:connector-curvature="0" id="path1979"
              d="m 105.22709,316.11623 0.31957,79.0941 66.471,0.15978"
              style="fill: none; stroke: rgb(0, 156, 220); stroke-width: 16; stroke-linecap: square; stroke-linejoin: miter; stroke-miterlimit: 4; stroke-opacity: 1; paint-order: normal;"
              class="sybRIPgO_1"></path>
        <g style="stroke:#009cdc;stroke-opacity:1" transform="translate(-8.6966213)" id="g2119">
            <path style="fill: none; stroke: rgb(0, 156, 220); stroke-width: 16; stroke-linecap: square; stroke-linejoin: miter; stroke-miterlimit: 4; stroke-opacity: 1;"
                  d="m 212.19587,316.27602 0.15978,86.12468" id="path1981" inkscape:connector-curvature="0"
                  class="sybRIPgO_2"></path>
            <path style="fill: none; stroke: rgb(0, 156, 220); stroke-width: 16; stroke-linecap: square; stroke-linejoin: round; stroke-miterlimit: 4; stroke-opacity: 1;"
                  d="m 281.22345,315.95645 -50.01303,44.10095 50.17281,41.86394" id="path1983"
                  inkscape:connector-curvature="0" class="sybRIPgO_3"></path>
        </g>
        <g style="stroke:#009cdc;stroke-opacity:1" transform="translate(-1.6241714)" id="g2123">
            <path style="fill: none; stroke: rgb(244, 132, 14); stroke-width: 16; stroke-linecap: butt; stroke-linejoin: miter; stroke-miterlimit: 4; stroke-opacity: 1;"
                  d="m 301.35648,323.62618 74.14073,-0.15979" id="path1985" inkscape:connector-curvature="0"
                  class="sybRIPgO_4"></path>
            <path style="fill: none; stroke: rgb(0, 156, 220); stroke-width: 16; stroke-linecap: butt; stroke-linejoin: miter; stroke-miterlimit: 4; stroke-opacity: 1;"
                  d="m 375.49721,358.45953 -66.471,0.63915 v 35.63229 l 66.31121,-1e-5" id="path1987"
                  inkscape:connector-curvature="0" sodipodi:nodetypes="cccc" class="sybRIPgO_5"></path>
        </g>
        <g style="stroke:#009cdc;stroke-opacity:1" transform="translate(-8.3099785)" id="g2127">
            <path style="fill: none; stroke: rgb(0, 156, 220); stroke-width: 16; stroke-linecap: butt; stroke-linejoin: miter; stroke-miterlimit: 4; stroke-opacity: 1;"
                  d="m 397.70747,322.98703 h 48.73474 c 0,0 22.03392,-0.27863 22.21026,17.25689 0.2022,20.10735 -21.7309,19.4939 -21.7309,19.4939 l -48.41517,-0.15979"
                  id="path2029" inkscape:connector-curvature="0" sodipodi:nodetypes="ccscc" class="sybRIPgO_6"></path>
            <path style="fill: none; stroke: rgb(0, 156, 220); stroke-width: 16; stroke-linecap: butt; stroke-linejoin: miter; stroke-miterlimit: 4; stroke-opacity: 1;"
                  d="m 398.5064,359.57803 h 48.73474 c 0,0 22.03392,-0.27863 22.21026,17.25689 0.2022,20.10735 -21.7309,19.4939 -21.7309,19.4939 l -48.41517,-0.15979"
                  id="path2029-5" inkscape:connector-curvature="0" sodipodi:nodetypes="ccscc" class="sybRIPgO_7"></path>
        </g>
        <path sodipodi:nodetypes="ccscc" inkscape:connector-curvature="0" id="path2048"
              d="m 492.59002,316.4358 0.15979,52.56961 c 0,0 0.025,26.74279 39.30737,26.84406 43.28202,0.11158 40.42587,-28.44192 40.42587,-28.44192 l 0.15978,-50.97175"
              style="fill: none; stroke: rgb(0, 156, 220); stroke-width: 16; stroke-linecap: butt; stroke-linejoin: miter; stroke-miterlimit: 4; stroke-opacity: 1;"
              class="sybRIPgO_8"></path>
        <g style="stroke:#f4840e;stroke-opacity:1" transform="translate(-7.7535156)" id="g2131">
            <path style="fill: none; stroke: rgb(244, 132, 14); stroke-width: 16; stroke-linecap: butt; stroke-linejoin: round; stroke-miterlimit: 4; stroke-opacity: 1;"
                  d="m 610.86206,317.23474 42.66287,77.97559 43.4618,-78.13538" id="path2050"
                  inkscape:connector-curvature="0" class="sybRIPgO_9"></path>
            <path style="fill: none; stroke: rgb(244, 132, 14); stroke-width: 16; stroke-linecap: butt; stroke-linejoin: round; stroke-miterlimit: 4; stroke-opacity: 1;"
                  d="m 654.43864,317.2755 42.66287,77.97559 43.4618,-78.13538" id="path2050-5"
                  inkscape:connector-curvature="0" class="sybRIPgO_10"></path>
        </g>
        <path inkscape:connector-curvature="0" id="path1977-4"
              d="m 724.25344,398.73859 47.93581,-77.97559 48.25539,78.13538"
              style="fill: none; stroke: rgb(244, 132, 14); stroke-width: 16; stroke-linecap: square; stroke-linejoin: round; stroke-miterlimit: 4; stroke-opacity: 1;"
              class="sybRIPgO_11"></path>
        <g style="stroke:#f4840e;stroke-opacity:1" transform="translate(-4.987846)" id="g2135">
            <path style="fill: none; stroke: rgb(244, 132, 14); stroke-width: 16; stroke-linecap: butt; stroke-linejoin: miter; stroke-miterlimit: 4; stroke-opacity: 1;"
                  d="m 854.78393,369.60677 46.91432,0.19585 c 0,0 21.25318,0.7519 21.05725,-23.89361 -0.17087,-21.49323 -21.52175,-21.15171 -21.52175,-21.15171 h -47.22399 l 1.14304,77.08276"
                  id="path2029-8" inkscape:connector-curvature="0" sodipodi:nodetypes="ccscc"
                  class="sybRIPgO_12"></path>
            <path style="fill: none; stroke: rgb(244, 132, 14); stroke-width: 16; stroke-linecap: butt; stroke-linejoin: miter; stroke-miterlimit: 4; stroke-opacity: 1;"
                  d="m 895.75139,370.00921 31.18408,32.31394" id="path2097" inkscape:connector-curvature="0"
                  sodipodi:nodetypes="cc" class="sybRIPgO_13"></path>
        </g>
        <g style="stroke:#f4840e;stroke-opacity:1" transform="translate(-7.999936)" id="g2139">
            <path style="fill: none; stroke: rgb(244, 132, 14); stroke-width: 18; stroke-linecap: butt; stroke-linejoin: miter; stroke-miterlimit: 4; stroke-opacity: 1;"
                  d="m 952.482,322.242 74.1407,-0.15979" id="path1985-5" inkscape:connector-curvature="0"
                  class="sybRIPgO_14"></path>
            <path style="fill: none; stroke: rgb(244, 132, 14); stroke-width: 18; stroke-linecap: butt; stroke-linejoin: miter; stroke-miterlimit: 4; stroke-opacity: 1;"
                  d="m 1026.6227,357.07535 -66.47097,0.63915 v 35.63229 l 66.31117,-10e-6" id="path1987-0"
                  inkscape:connector-curvature="0" sodipodi:nodetypes="cccc" class="sybRIPgO_15"></path>
        </g>
    </g>
    <g id="g3325" transform="translate(14.164696,-0.21133417)">
        <path inkscape:export-ydpi="96" inkscape:export-xdpi="96" sodipodi:nodetypes="cc"
              inkscape:connector-curvature="0" id="path4672" d="M 517.46548,136.88241 551.16014,85.701785"
              style="fill: none; stroke: rgb(244, 132, 14); stroke-width: 17.3; stroke-linecap: square; stroke-linejoin: miter; stroke-miterlimit: 4; stroke-opacity: 1;"
              class="sybRIPgO_16"></path>
        <path inkscape:export-ydpi="96" inkscape:export-xdpi="96" sodipodi:nodetypes="cccc"
              inkscape:connector-curvature="0" id="path4640"
              d="M 515.55777,141.37702 483.02794,83.962089 v 0 l -50.69183,90.765461"
              style="fill: none; stroke: rgb(0, 156, 220); stroke-width: 17.3; stroke-linecap: round; stroke-linejoin: round; stroke-miterlimit: 4; stroke-opacity: 1;"
              class="sybRIPgO_17"></path>
        <path sodipodi:nodetypes="cssscc" inkscape:export-ydpi="96" inkscape:export-xdpi="96"
              inkscape:connector-curvature="0" id="path4646"
              d="m 432.33611,174.72755 c 13.08358,21.8473 27.37042,29.25383 51.76143,36.57249 24.39101,7.31865 51.48705,5.19148 74.4372,-5.84371 22.95014,-11.03517 41.53126,-30.87107 51.04532,-54.4924 9.51406,-23.62132 9.86856,-50.79842 0.97387,-74.659873 -0.0428,-0.114784 -0.0857,-0.229492 -0.12894,-0.34413"
              style="fill: none; stroke: rgb(0, 156, 220); stroke-width: 17.3; stroke-linecap: butt; stroke-linejoin: round; stroke-miterlimit: 4; stroke-opacity: 1;"
              class="sybRIPgO_18"></path>
        <path sodipodi:nodetypes="ccc" inkscape:export-ydpi="96" inkscape:export-xdpi="96"
              inkscape:connector-curvature="0" id="path4670"
              d="m 518.11038,84.227895 29.36954,56.345275 46.98586,-85.826822"
              style="fill: none; stroke: rgb(244, 132, 14); stroke-width: 17.3; stroke-linecap: square; stroke-linejoin: round; stroke-miterlimit: 4; stroke-opacity: 1;"
              class="sybRIPgO_19"></path>
        <path inkscape:connector-curvature="0" inkscape:export-ydpi="96" inkscape:export-xdpi="96" id="path4674"
              d="M 598.71719,56.025357 C 585.28626,35.076424 563.97454,19.31484 540.01079,12.607651 516.04704,5.9004616 489.64977,8.308825 467.29543,19.241856 c -22.35434,10.933033 -40.46191,30.291045 -49.88009,53.324621 -9.41817,23.033579 -10.06108,49.532693 -1.77098,72.995893 0.1415,0.40049 0.28549,0.8001 0.43196,1.1988"
              style="fill: none; stroke: rgb(244, 132, 14); stroke-width: 17.3; stroke-linecap: butt; stroke-linejoin: miter; stroke-miterlimit: 4; stroke-opacity: 1;"
              class="sybRIPgO_20"></path>
    </g>
    <path inkscape:connector-curvature="0" style="fill:#6d6d6d" id="Path_13" data-name="Path 13"
          d="m 603.46713,266.81944 c 12.106,-0.159 23.814,-0.373 34.913,-0.6 11.099,-0.227 21.592,-0.523 31.28,-0.8 9.688,-0.242 18.564,-0.569 26.434,-0.856 7.872,-0.257 14.736,-0.58 20.387,-0.82 5.651,-0.24 10.09,-0.489 13.115,-0.631 3.028,-0.168 4.642,-0.257 4.642,-0.257 0,0 -1.615,-0.09 -4.642,-0.255 -3.025,-0.143 -7.466,-0.4 -13.115,-0.633 -5.649,-0.233 -12.516,-0.562 -20.387,-0.821 -7.87,-0.286 -16.746,-0.611 -26.434,-0.856 -9.688,-0.277 -20.181,-0.578 -31.28,-0.8 -11.099,-0.222 -22.807,-0.445 -34.913,-0.6 -12.106,-0.155 -24.621,-0.3 -37.335,-0.378 -12.715,-0.1 -25.631,-0.115 -38.548,-0.139 -12.915,0.024 -25.833,0.031 -38.546,0.131 -12.713,0.066 -25.227,0.212 -37.335,0.375 -12.108,0.163 -23.816,0.372 -34.912,0.6 -11.096,0.228 -21.592,0.52 -31.28,0.8 -9.688,0.248 -18.567,0.57 -26.436,0.861 -7.874,0.26 -14.736,0.58 -20.385,0.823 -5.649,0.243 -10.092,0.49 -13.117,0.635 -3.026,0.167 -4.643,0.257 -4.643,0.257 0,0 1.617,0.09 4.643,0.257 3.025,0.144 7.47,0.407 13.117,0.634 5.649,0.244 12.511,0.565 20.385,0.826 7.869,0.291 16.748,0.612 26.436,0.858 9.688,0.282 20.177,0.576 31.28,0.8 11.103,0.224 22.8,0.444 34.912,0.6 12.112,0.156 24.622,0.307 37.335,0.373 12.713,0.1 25.631,0.109 38.546,0.135 12.917,-0.027 25.833,-0.042 38.548,-0.14 12.714,-0.079 25.225,-0.21 37.335,-0.379 z"
          inkscape:export-xdpi="96" inkscape:export-ydpi="96" class="sybRIPgO_21"></path>
    <style data-made-with="vivus-instant">.sybRIPgO_0{stroke-dasharray:184
        186;stroke-dashoffset:185;animation:sybRIPgO_draw 666ms ease-in-out 0ms
        forwards;}.sybRIPgO_1{stroke-dasharray:146 148;stroke-dashoffset:147;animation:sybRIPgO_draw 666ms ease-in-out
        15ms forwards;}.sybRIPgO_2{stroke-dasharray:87 89;stroke-dashoffset:88;animation:sybRIPgO_draw 666ms ease-in-out
        31ms forwards;}.sybRIPgO_3{stroke-dasharray:133 135;stroke-dashoffset:134;animation:sybRIPgO_draw 666ms
        ease-in-out 47ms forwards;}.sybRIPgO_4{stroke-dasharray:75 77;stroke-dashoffset:76;animation:sybRIPgO_draw 666ms
        ease-in-out 63ms forwards;}.sybRIPgO_5{stroke-dasharray:169 171;stroke-dashoffset:170;animation:sybRIPgO_draw
        666ms ease-in-out 79ms forwards;}.sybRIPgO_6{stroke-dasharray:162
        164;stroke-dashoffset:163;animation:sybRIPgO_draw 666ms ease-in-out 95ms
        forwards;}.sybRIPgO_7{stroke-dasharray:162 164;stroke-dashoffset:163;animation:sybRIPgO_draw 666ms ease-in-out
        111ms forwards;}.sybRIPgO_8{stroke-dasharray:213 215;stroke-dashoffset:214;animation:sybRIPgO_draw 666ms
        ease-in-out 126ms forwards;}.sybRIPgO_9{stroke-dasharray:179 181;stroke-dashoffset:180;animation:sybRIPgO_draw
        666ms ease-in-out 142ms forwards;}.sybRIPgO_10{stroke-dasharray:179
        181;stroke-dashoffset:180;animation:sybRIPgO_draw 666ms ease-in-out 158ms
        forwards;}.sybRIPgO_11{stroke-dasharray:184 186;stroke-dashoffset:185;animation:sybRIPgO_draw 666ms ease-in-out
        174ms forwards;}.sybRIPgO_12{stroke-dasharray:242 244;stroke-dashoffset:243;animation:sybRIPgO_draw 666ms
        ease-in-out 190ms forwards;}.sybRIPgO_13{stroke-dasharray:45 47;stroke-dashoffset:46;animation:sybRIPgO_draw
        666ms ease-in-out 206ms forwards;}.sybRIPgO_14{stroke-dasharray:75
        77;stroke-dashoffset:76;animation:sybRIPgO_draw 666ms ease-in-out 222ms
        forwards;}.sybRIPgO_15{stroke-dasharray:169 171;stroke-dashoffset:170;animation:sybRIPgO_draw 666ms ease-in-out
        238ms forwards;}.sybRIPgO_16{stroke-dasharray:62 64;stroke-dashoffset:63;animation:sybRIPgO_draw 666ms
        ease-in-out 253ms forwards;}.sybRIPgO_17{stroke-dasharray:170 172;stroke-dashoffset:171;animation:sybRIPgO_draw
        666ms ease-in-out 269ms forwards;}.sybRIPgO_18{stroke-dasharray:295
        297;stroke-dashoffset:296;animation:sybRIPgO_draw 666ms ease-in-out 285ms
        forwards;}.sybRIPgO_19{stroke-dasharray:162 164;stroke-dashoffset:163;animation:sybRIPgO_draw 666ms ease-in-out
        301ms forwards;}.sybRIPgO_20{stroke-dasharray:300 302;stroke-dashoffset:301;animation:sybRIPgO_draw 666ms
        ease-in-out 317ms forwards;}.sybRIPgO_21{stroke-dasharray:827 829;stroke-dashoffset:828;animation:sybRIPgO_draw
        666ms ease-in-out 333ms forwards;}@keyframes sybRIPgO_draw{100%{stroke-dashoffset:0;}}@keyframes
        sybRIPgO_fade{0%{stroke-opacity:1;}92.3076923076923%{stroke-opacity:1;}100%{stroke-opacity:0;}}
    </style>
</svg>
